<mxfile host="app.diagrams.net" modified="2023-08-09T23:15:00.475Z" agent="Mozilla/5.0 (Windows NT 10.0; Win64; x64; rv:109.0) Gecko/20100101 Firefox/116.0" version="21.6.6" etag="G2pjHTG9lbMROyxL8LqG" type="github">
  <diagram name="PÃ¡gina-1" id="E18LvxMhnvM2_Yk6iUhx">
    <mxGraphModel>
      <root>
        <mxCell id="0" />
        <mxCell id="1" parent="0" />
      </root>
    </mxGraphModel>
  </diagram>
</mxfile>
